<svg xmlns="http://www.w3.org/2000/svg" width="615.621" height="1486.342" viewBox="0 0 615.621 1486.342" style=""><g transform="translate(-1252.69 -2048.658)"><path transform="translate(1560 2581)" fill="none" stroke="#dcab35" stroke-width="0.75" opacity="0.65" d="M0,0L0,954" class="IFvAYuSB_0"></path><path d="M0,118.259,204.837,0l204.83,118.259V354.778L204.837,473.037,0,354.778Zm51.206,29.562V325.216L256.043,443.475m-51.206-29.567L357.275,325.9V147.135M307.248,354.778V177.389l-153.624-88.7m51.213,29.568-102.418,59.13v176.7m0-58.445,101.226,58.445,103.6-58.445m0-118.259,100.881-59.613-50.854,29.359L204.837,59.13,0,177.389m153.624,88.7" transform="translate(1867.748 2285.718) rotate(120)" fill="none" stroke="#dcab35" stroke-miterlimit="10" stroke-width="0.75" opacity="0.65" class="IFvAYuSB_1"></path></g><style data-made-with="vivus-instant">.IFvAYuSB_0{stroke-dasharray:954 956;stroke-dashoffset:955;animation:IFvAYuSB_draw_0 13200ms linear 0ms infinite,IFvAYuSB_fade 13200ms linear 0ms infinite;}.IFvAYuSB_1{stroke-dasharray:3662 3664;stroke-dashoffset:3663;animation:IFvAYuSB_draw_1 13200ms linear 0ms infinite,IFvAYuSB_fade 13200ms linear 0ms infinite;}@keyframes IFvAYuSB_draw{100%{stroke-dashoffset:0;}}@keyframes IFvAYuSB_fade{0%{stroke-opacity:1;}96.96969696969697%{stroke-opacity:1;}100%{stroke-opacity:0;}}@keyframes IFvAYuSB_draw_0{6.0606060606060606%{stroke-dashoffset: 955}74.24242424242425%{ stroke-dashoffset: 0;}100%{ stroke-dashoffset: 0;}}@keyframes IFvAYuSB_draw_1{6.0606060606060606%{stroke-dashoffset: 3663}74.24242424242425%{ stroke-dashoffset: 0;}100%{ stroke-dashoffset: 0;}}</style></svg>