<svg xmlns="http://www.w3.org/2000/svg" width="2749.068" height="2116.5" viewBox="0 0 2749.068 2116.5" style=""><g transform="translate(115.654 777.567)"><g transform="translate(0 -265)" opacity="0.31"><path d="M1149.539,1301.053,1607.6,1036.6l458.045,264.454v528.909L1607.6,2094.416l-69.528-40.141-388.533-224.313Zm114.509,66.107v396.694l458.059,264.454m-114.508-66.12,340.885-196.8v-399.76m-111.87,464.335V1433.281l-343.538-198.348m114.523,66.121-229.03,132.228V1828.43m0-130.7,226.364,130.7,231.681-130.7m0-264.454-117.158,64.588L1607.6,1433.281l-229.03,132.226m683.638-265.533-113.722,65.654-340.885-196.8-458.06,264.454m343.537,66.119v132.226l222.555,128.485m-101.624-66.081,108.1-62.4V1497.869m-229.031,133.757,114.523-66.879V1433.281m114.508,198.345L1607.6,1564.747" transform="translate(-348.712 -1019.824)" fill="none" stroke="#dcab35" stroke-miterlimit="10" stroke-width="0.75" class="Ckjlmrrc_0"></path><path d="M1149.539,1301.053,1607.6,1036.6l458.045,264.454v528.909L1607.6,2094.416l-458.06-264.454Zm114.509,66.107v396.694l458.059,264.454m-114.508-66.12,340.885-196.8v-399.76m-111.87,464.335V1433.281l-343.538-198.348m114.523,66.121-229.03,132.228V1828.43m0-130.7,226.364,130.7,231.681-130.7m0-264.454-117.158,64.588L1607.6,1433.281l-229.03,132.226m683.638-265.533-113.722,65.654-340.885-196.8-458.06,264.454m343.537,66.119v132.226l225.385,132.342m-110.589-64.932,114.235-67.411V1497.869M1607.6,1564.747m114.508,66.879" transform="translate(1950.365 2640.099) rotate(180)" fill="none" stroke="#dcab35" stroke-miterlimit="10" stroke-width="0.75" class="Ckjlmrrc_1"></path><path d="M1149.539,1301.053,1607.6,1036.6l458.045,264.454v528.909L1607.6,2094.416l-458.06-264.454Zm114.509,66.107v396.694l458.059,264.454m-114.508-66.12,340.885-196.8v-399.76m-111.87,464.335V1433.281l-343.538-198.348m114.523,66.121-229.03,132.228V1828.43m0-130.7,226.364,130.7,231.681-130.7m0-264.454-117.158,64.588L1607.6,1433.281l-229.03,132.226m683.638-265.533-113.722,65.654-340.885-196.8-458.06,264.454m343.537,66.119v132.226l222.555,128.485m-101.624-66.081,108.1-62.4V1497.869m-229.031,133.757,114.523-66.879V1433.281m114.508,198.345L1607.6,1564.747" transform="translate(567.394 -1548.733)" fill="none" stroke="#dcab35" stroke-miterlimit="10" stroke-width="0.75" class="Ckjlmrrc_2"></path><path d="M1149.539,1301.053,1607.6,1036.6l458.045,264.454v528.909L1607.6,2094.416l-458.06-264.454Zm114.509,66.107v396.694l458.059,264.454m226.378-662.681-111.87,67.654-343.538-198.348m114.523,66.121-229.03,132.228m458.045,0-117.158,64.588L1607.6,1433.281m454.608-133.307-113.722,65.654-340.885-196.8-458.06,264.454m343.537,66.119,229.031-1.531M1607.6,1433.281" transform="translate(-1264.818 -1548.733)" fill="none" stroke="#dcab35" stroke-miterlimit="10" stroke-width="0.75" class="Ckjlmrrc_3"></path><path transform="translate(1575 1075)" fill="none" stroke="#d4d4d4" stroke-width="1" d="M0,0L614,353" class="Ckjlmrrc_4"></path></g><path transform="translate(801.5 237.5)" fill="none" stroke="#e2bb5d" stroke-width="2" d="M0,0L0,77" class="Ckjlmrrc_5"></path><path transform="translate(1717.5 457)" fill="none" stroke="#e2bb5d" stroke-width="2" d="M0,0L0,77" class="Ckjlmrrc_6"></path></g><style data-made-with="vivus-instant">.Ckjlmrrc_0{stroke-dasharray:9499 9501;stroke-dashoffset:9500;animation:Ckjlmrrc_draw_0 11600ms linear 0ms infinite,Ckjlmrrc_fade 11600ms linear 0ms infinite;}.Ckjlmrrc_1{stroke-dasharray:9115 9117;stroke-dashoffset:9116;animation:Ckjlmrrc_draw_1 11600ms linear 0ms infinite,Ckjlmrrc_fade 11600ms linear 0ms infinite;}.Ckjlmrrc_2{stroke-dasharray:9499 9501;stroke-dashoffset:9500;animation:Ckjlmrrc_draw_2 11600ms linear 0ms infinite,Ckjlmrrc_fade 11600ms linear 0ms infinite;}.Ckjlmrrc_3{stroke-dasharray:6437 6439;stroke-dashoffset:6438;animation:Ckjlmrrc_draw_3 11600ms linear 0ms infinite,Ckjlmrrc_fade 11600ms linear 0ms infinite;}.Ckjlmrrc_4{stroke-dasharray:709 711;stroke-dashoffset:710;animation:Ckjlmrrc_draw_4 11600ms linear 0ms infinite,Ckjlmrrc_fade 11600ms linear 0ms infinite;}.Ckjlmrrc_5{stroke-dasharray:77 79;stroke-dashoffset:78;animation:Ckjlmrrc_draw_5 11600ms linear 0ms infinite,Ckjlmrrc_fade 11600ms linear 0ms infinite;}.Ckjlmrrc_6{stroke-dasharray:77 79;stroke-dashoffset:78;animation:Ckjlmrrc_draw_6 11600ms linear 0ms infinite,Ckjlmrrc_fade 11600ms linear 0ms infinite;}@keyframes Ckjlmrrc_draw{100%{stroke-dashoffset:0;}}@keyframes Ckjlmrrc_fade{0%{stroke-opacity:1;}96.55172413793103%{stroke-opacity:1;}100%{stroke-opacity:0;}}@keyframes Ckjlmrrc_draw_0{1.7241379310344827%{stroke-dashoffset: 9500}87.93103448275862%{ stroke-dashoffset: 0;}100%{ stroke-dashoffset: 0;}}@keyframes Ckjlmrrc_draw_1{1.7241379310344827%{stroke-dashoffset: 9116}87.93103448275862%{ stroke-dashoffset: 0;}100%{ stroke-dashoffset: 0;}}@keyframes Ckjlmrrc_draw_2{1.7241379310344827%{stroke-dashoffset: 9500}87.93103448275862%{ stroke-dashoffset: 0;}100%{ stroke-dashoffset: 0;}}@keyframes Ckjlmrrc_draw_3{1.7241379310344827%{stroke-dashoffset: 6438}87.93103448275862%{ stroke-dashoffset: 0;}100%{ stroke-dashoffset: 0;}}@keyframes Ckjlmrrc_draw_4{1.7241379310344827%{stroke-dashoffset: 710}87.93103448275862%{ stroke-dashoffset: 0;}100%{ stroke-dashoffset: 0;}}@keyframes Ckjlmrrc_draw_5{1.7241379310344827%{stroke-dashoffset: 78}87.93103448275862%{ stroke-dashoffset: 0;}100%{ stroke-dashoffset: 0;}}@keyframes Ckjlmrrc_draw_6{1.7241379310344827%{stroke-dashoffset: 78}87.93103448275862%{ stroke-dashoffset: 0;}100%{ stroke-dashoffset: 0;}}</style></svg>