<svg xmlns="http://www.w3.org/2000/svg" width="3892.064" height="4453.5" viewBox="0 0 3892.064 4453.5" style=""><g transform="translate(1262.651 440.567)"><g transform="translate(-1146.996 2414.045)" opacity="0.32"><path d="M1149.539,1300.422,1606.507,1036.6l456.953,263.823v527.648l-456.953,263.823-69.362-40.045-387.607-223.778Zm114.236,65.949V1762.12l456.967,263.824m-114.235-65.962,340.073-196.332V1364.843m-111.6,463.228V1432.335l-342.719-197.875m114.25,65.963-228.484,131.912v394.207m0-130.383,225.824,130.383,231.129-130.383m0-263.823L1718.1,1496.769l-111.59-64.434-228.484,131.911m682.008-264.9-113.451,65.5-340.073-196.331-456.968,263.823m342.718,65.962v131.911l222.024,128.179m-106.316-61.3,112.776-66.881V1496.769m-228.485,133.438,114.25-66.719V1432.335m114.235,197.872-114.235-66.719" transform="translate(-350.897 -1021.086)" fill="none" stroke="#dcab35" stroke-miterlimit="10" stroke-width="0.75" class="aJHiGBwW_0"></path><path d="M0,263.823,456.968,0,913.921,263.823V791.472L456.968,1055.294,0,791.472Zm114.236,65.949V725.521L571.2,989.344M456.968,923.382,797.041,727.05V328.244m-111.6,463.228V395.736L342.718,197.86m114.25,65.963L228.484,395.736V789.943m0-130.383L454.308,789.943,685.437,659.559m0-263.823L568.558,460.17l-111.59-64.434L228.484,527.646m682.008-264.9-113.451,65.5L456.968,131.913,0,395.736M342.718,461.7V593.608L567.566,725.635M457.241,660.858,571.2,593.608V460.17M342.718,593.608l114.25-66.719V395.736M571.2,593.608,456.968,526.889" transform="translate(798.642 1598.455) rotate(180)" fill="none" stroke="#dcab35" stroke-miterlimit="10" stroke-width="0.75" class="aJHiGBwW_1"></path><path d="M1149.539,1300.422,1606.507,1036.6l456.953,263.823v527.648l-456.953,263.823-456.968-263.823Zm114.236,65.949V1762.12l456.967,263.824m-114.235-65.962,340.073-196.332V1364.843m-111.6,463.228V1432.335l-342.719-197.875m114.25,65.963-228.484,131.912v394.207m0-130.383,225.824,130.383,231.129-130.383m0-263.823L1718.1,1496.769l-111.59-64.434-228.484,131.911m682.008-264.9-113.451,65.5-340.073-196.331-456.968,263.823m342.718,65.962v131.911l222.024,128.179M1612.9,1692.463l107.842-62.256V1496.769m-228.485,133.438,114.25-66.719V1432.335m114.235,197.872-114.235-66.719" transform="translate(563.025 -1548.733)" fill="none" stroke="#dcab35" stroke-miterlimit="10" stroke-width="0.75" class="aJHiGBwW_2"></path><path d="M1149.539,1300.422,1606.507,1036.6l456.953,263.823v527.648l-456.953,263.823-456.968-263.823Zm114.236,65.949V1762.12l456.967,263.824m225.838-661.1-111.6,67.492-342.719-197.875m114.25,65.963-228.484,131.912m456.953,0L1718.1,1496.769l-111.59-64.434m453.524-132.989-113.451,65.5-340.073-196.331-456.968,263.823m342.718,65.962,228.485-1.528-114.235-64.434" transform="translate(-1264.818 -1548.733)" fill="none" stroke="#dcab35" stroke-miterlimit="10" stroke-width="0.75" class="aJHiGBwW_3"></path><path transform="translate(798.316 1070.717)" fill="none" stroke="#dcab35" stroke-width="1" d="M0,263.37L456.908,0" class="aJHiGBwW_4"></path></g><g transform="translate(-4 72)" opacity="0.32"><path d="M1149.539,1301.053,1607.6,1036.6l458.045,264.454v528.909L1607.6,2094.416l-69.528-40.141-388.533-224.313Zm114.509,66.107v396.694l458.059,264.454m-114.508-66.12,340.885-196.8v-399.76m-111.87,464.335V1433.281l-343.538-198.348m114.523,66.121-229.03,132.228V1828.43m0-130.7,226.364,130.7,231.681-130.7m0-264.454-117.158,64.588L1607.6,1433.281l-229.03,132.226m683.638-265.533-113.722,65.654-340.885-196.8-458.06,264.454m343.537,66.119v132.226l222.555,128.485m-106.57-61.445,113.046-67.041V1497.869m-229.031,133.757,114.523-66.879V1433.281m114.508,198.345L1607.6,1564.747" transform="translate(-348.712 -1019.824)" fill="none" stroke="#dcab35" stroke-miterlimit="10" stroke-width="0.75" class="aJHiGBwW_5"></path><path d="M1149.539,1301.053,1607.6,1036.6l458.045,264.454v528.909L1607.6,2094.416l-458.06-264.454Zm114.509,66.107v396.694l458.059,264.454m-114.508-66.12,340.885-196.8v-399.76m-111.87,464.335V1433.281l-343.538-198.348m114.523,66.121-229.03,132.228V1828.43m0-130.7,226.364,130.7,231.681-130.7m0-264.454-117.158,64.588L1607.6,1433.281l-229.03,132.226m683.638-265.533-113.722,65.654-340.885-196.8-458.06,264.454m343.537,66.119v132.226l225.385,132.342m-110.589-64.932,114.235-67.411V1497.869m-229.031,133.757,114.523-66.879V1433.281m114.508,198.345L1607.6,1564.747" transform="translate(1950.365 2640.099) rotate(180)" fill="none" stroke="#dcab35" stroke-miterlimit="10" stroke-width="0.75" class="aJHiGBwW_6"></path><path d="M1149.539,1301.053,1607.6,1036.6l458.045,264.454v528.909L1607.6,2094.416l-458.06-264.454Zm114.509,66.107v396.694l458.059,264.454m-114.508-66.12,340.885-196.8v-399.76m-111.87,464.335V1433.281l-343.538-198.348m114.523,66.121-229.03,132.228V1828.43m0-130.7,226.364,130.7,231.681-130.7m0-264.454-117.158,64.588L1607.6,1433.281l-229.03,132.226m683.638-265.533-113.722,65.654-340.885-196.8-458.06,264.454m343.537,66.119v132.226l222.555,128.485m-101.624-66.081,108.1-62.4V1497.869m-229.031,133.757,114.523-66.879V1433.281m114.508,198.345L1607.6,1564.747" transform="translate(567.394 -1548.733)" fill="none" stroke="#dcab35" stroke-miterlimit="10" stroke-width="0.75" class="aJHiGBwW_7"></path><path d="M1149.539,1301.053,1607.6,1036.6l458.045,264.454v528.909L1607.6,2094.416l-458.06-264.454Zm114.509,66.107v396.694l458.059,264.454m226.378-662.681-111.87,67.654-343.538-198.348m114.523,66.121-229.03,132.228m458.045,0-117.158,64.588L1607.6,1433.281m454.608-133.307-113.722,65.654-340.885-196.8-458.06,264.454m343.537,66.119,229.031-1.531M1607.6,1433.281" transform="translate(-1264.818 -1548.733)" fill="none" stroke="#dcab35" stroke-miterlimit="10" stroke-width="0.75" class="aJHiGBwW_8"></path><path transform="translate(800.5 1074.5)" fill="none" stroke="#dcab35" stroke-width="1" d="M0,264L458,0" class="aJHiGBwW_9"></path></g><path transform="translate(1571 1147)" fill="none" stroke="#d4d4d4" stroke-width="1" d="M0,0L614,353" class="aJHiGBwW_10"></path><path transform="translate(795.5 302.5)" fill="none" stroke="#e2bb5d" stroke-width="2" d="M0,0L0,77" class="aJHiGBwW_11"></path><path transform="translate(1713.5 523)" fill="none" stroke="#e2bb5d" stroke-width="2" d="M0,0L0,77" class="aJHiGBwW_12"></path><path transform="translate(566.5 1849.072)" fill="none" stroke="#dcab35" stroke-width="1" opacity="0.8" d="M0,0L0,368.428" class="aJHiGBwW_13"></path></g><style data-made-with="vivus-instant">.aJHiGBwW_0{stroke-dasharray:9483 9485;stroke-dashoffset:9484;animation:aJHiGBwW_draw_0 13600ms ease 0ms infinite,aJHiGBwW_fade 13600ms linear 0ms infinite;}.aJHiGBwW_1{stroke-dasharray:9489 9491;stroke-dashoffset:9490;animation:aJHiGBwW_draw_1 13600ms ease 0ms infinite,aJHiGBwW_fade 13600ms linear 0ms infinite;}.aJHiGBwW_2{stroke-dasharray:9476 9478;stroke-dashoffset:9477;animation:aJHiGBwW_draw_2 13600ms ease 0ms infinite,aJHiGBwW_fade 13600ms linear 0ms infinite;}.aJHiGBwW_3{stroke-dasharray:6553 6555;stroke-dashoffset:6554;animation:aJHiGBwW_draw_3 13600ms ease 0ms infinite,aJHiGBwW_fade 13600ms linear 0ms infinite;}.aJHiGBwW_4{stroke-dasharray:528 530;stroke-dashoffset:529;animation:aJHiGBwW_draw_4 13600ms ease 0ms infinite,aJHiGBwW_fade 13600ms linear 0ms infinite;}.aJHiGBwW_5{stroke-dasharray:9506 9508;stroke-dashoffset:9507;animation:aJHiGBwW_draw_5 13600ms ease 0ms infinite,aJHiGBwW_fade 13600ms linear 0ms infinite;}.aJHiGBwW_6{stroke-dasharray:9511 9513;stroke-dashoffset:9512;animation:aJHiGBwW_draw_6 13600ms ease 0ms infinite,aJHiGBwW_fade 13600ms linear 0ms infinite;}.aJHiGBwW_7{stroke-dasharray:9499 9501;stroke-dashoffset:9500;animation:aJHiGBwW_draw_7 13600ms ease 0ms infinite,aJHiGBwW_fade 13600ms linear 0ms infinite;}.aJHiGBwW_8{stroke-dasharray:6437 6439;stroke-dashoffset:6438;animation:aJHiGBwW_draw_8 13600ms ease 0ms infinite,aJHiGBwW_fade 13600ms linear 0ms infinite;}.aJHiGBwW_9{stroke-dasharray:529 531;stroke-dashoffset:530;animation:aJHiGBwW_draw_9 13600ms ease 0ms infinite,aJHiGBwW_fade 13600ms linear 0ms infinite;}.aJHiGBwW_10{stroke-dasharray:709 711;stroke-dashoffset:710;animation:aJHiGBwW_draw_10 13600ms ease 0ms infinite,aJHiGBwW_fade 13600ms linear 0ms infinite;}.aJHiGBwW_11{stroke-dasharray:77 79;stroke-dashoffset:78;animation:aJHiGBwW_draw_11 13600ms ease 0ms infinite,aJHiGBwW_fade 13600ms linear 0ms infinite;}.aJHiGBwW_12{stroke-dasharray:77 79;stroke-dashoffset:78;animation:aJHiGBwW_draw_12 13600ms ease 0ms infinite,aJHiGBwW_fade 13600ms linear 0ms infinite;}.aJHiGBwW_13{stroke-dasharray:369 371;stroke-dashoffset:370;animation:aJHiGBwW_draw_13 13600ms ease 0ms infinite,aJHiGBwW_fade 13600ms linear 0ms infinite;}@keyframes aJHiGBwW_draw{100%{stroke-dashoffset:0;}}@keyframes aJHiGBwW_fade{0%{stroke-opacity:1;}94.11764705882354%{stroke-opacity:1;}100%{stroke-opacity:0;}}@keyframes aJHiGBwW_draw_0{5.88235294117647%{stroke-dashoffset: 9484}79.41176470588235%{ stroke-dashoffset: 0;}100%{ stroke-dashoffset: 0;}}@keyframes aJHiGBwW_draw_1{5.88235294117647%{stroke-dashoffset: 9490}79.41176470588235%{ stroke-dashoffset: 0;}100%{ stroke-dashoffset: 0;}}@keyframes aJHiGBwW_draw_2{5.88235294117647%{stroke-dashoffset: 9477}79.41176470588235%{ stroke-dashoffset: 0;}100%{ stroke-dashoffset: 0;}}@keyframes aJHiGBwW_draw_3{5.88235294117647%{stroke-dashoffset: 6554}79.41176470588235%{ stroke-dashoffset: 0;}100%{ stroke-dashoffset: 0;}}@keyframes aJHiGBwW_draw_4{5.88235294117647%{stroke-dashoffset: 529}79.41176470588235%{ stroke-dashoffset: 0;}100%{ stroke-dashoffset: 0;}}@keyframes aJHiGBwW_draw_5{5.88235294117647%{stroke-dashoffset: 9507}79.41176470588235%{ stroke-dashoffset: 0;}100%{ stroke-dashoffset: 0;}}@keyframes aJHiGBwW_draw_6{5.88235294117647%{stroke-dashoffset: 9512}79.41176470588235%{ stroke-dashoffset: 0;}100%{ stroke-dashoffset: 0;}}@keyframes aJHiGBwW_draw_7{5.88235294117647%{stroke-dashoffset: 9500}79.41176470588235%{ stroke-dashoffset: 0;}100%{ stroke-dashoffset: 0;}}@keyframes aJHiGBwW_draw_8{5.88235294117647%{stroke-dashoffset: 6438}79.41176470588235%{ stroke-dashoffset: 0;}100%{ stroke-dashoffset: 0;}}@keyframes aJHiGBwW_draw_9{5.88235294117647%{stroke-dashoffset: 530}79.41176470588235%{ stroke-dashoffset: 0;}100%{ stroke-dashoffset: 0;}}@keyframes aJHiGBwW_draw_10{5.88235294117647%{stroke-dashoffset: 710}79.41176470588235%{ stroke-dashoffset: 0;}100%{ stroke-dashoffset: 0;}}@keyframes aJHiGBwW_draw_11{5.88235294117647%{stroke-dashoffset: 78}79.41176470588235%{ stroke-dashoffset: 0;}100%{ stroke-dashoffset: 0;}}@keyframes aJHiGBwW_draw_12{5.88235294117647%{stroke-dashoffset: 78}79.41176470588235%{ stroke-dashoffset: 0;}100%{ stroke-dashoffset: 0;}}@keyframes aJHiGBwW_draw_13{5.88235294117647%{stroke-dashoffset: 370}79.41176470588235%{ stroke-dashoffset: 0;}100%{ stroke-dashoffset: 0;}}</style></svg>