<svg xmlns="http://www.w3.org/2000/svg" width="24.283" height="24.283" viewBox="0 0 24.283 24.283"><g transform="translate(11.43)"><path d="M241.712,0A.711.711,0,0,0,241,.711V5.283a.711.711,0,0,0,1.423,0V.711A.711.711,0,0,0,241.712,0Z" transform="translate(-241.001)" fill="#fff"/></g><g transform="translate(11.43 18.288)"><path d="M241.712,385.6a.711.711,0,0,0-.711.711v4.572a.711.711,0,0,0,1.423,0v-4.572A.711.711,0,0,0,241.712,385.6Z" transform="translate(-241.001 -385.601)" fill="#fff"/></g><g transform="translate(5.715 1.531)"><path d="M124.113,36.6l-2.286-3.96a.711.711,0,1,0-1.232.711l2.286,3.96a.711.711,0,0,0,1.232-.711Z" transform="translate(-120.499 -32.283)" fill="#fff"/></g><g transform="translate(14.859 17.369)"><path d="M316.913,370.541l-2.286-3.959a.711.711,0,1,0-1.232.711l2.286,3.959a.711.711,0,1,0,1.232-.711Z" transform="translate(-313.299 -366.225)" fill="#fff"/></g><g transform="translate(1.531 5.715)"><path d="M37.313,122.878l-3.96-2.286a.711.711,0,0,0-.711,1.232l3.96,2.286a.711.711,0,0,0,.711-1.232Z" transform="translate(-32.286 -120.496)" fill="#fff"/></g><g transform="translate(17.369 14.859)"><path d="M371.253,315.68l-3.96-2.286a.711.711,0,1,0-.711,1.232l3.959,2.286a.711.711,0,1,0,.711-1.232Z" transform="translate(-366.227 -313.299)" fill="#fff"/></g><g transform="translate(0 11.43)"><path d="M5.284,241H.711a.711.711,0,0,0,0,1.423H5.284a.711.711,0,0,0,0-1.423Z" transform="translate(0 -241.002)" fill="#fff"/></g><g transform="translate(18.288 11.43)"><path d="M390.885,241h-4.572a.711.711,0,1,0,0,1.423h4.572a.711.711,0,0,0,0-1.423Z" transform="translate(-385.602 -241.002)" fill="#fff"/></g><g transform="translate(1.531 14.859)"><path d="M37.574,313.654a.711.711,0,0,0-.972-.26l-3.96,2.286a.711.711,0,1,0,.711,1.232l3.96-2.286A.711.711,0,0,0,37.574,313.654Z" transform="translate(-32.287 -313.298)" fill="#fff"/></g><g transform="translate(17.369 5.715)"><path d="M371.513,120.855a.711.711,0,0,0-.972-.26l-3.96,2.286a.711.711,0,1,0,.711,1.232l3.96-2.286A.711.711,0,0,0,371.513,120.855Z" transform="translate(-366.226 -120.499)" fill="#fff"/></g><g transform="translate(5.715 17.369)"><path d="M123.852,366.321a.711.711,0,0,0-.972.26l-2.286,3.96a.711.711,0,1,0,1.232.711l2.286-3.96A.711.711,0,0,0,123.852,366.321Z" transform="translate(-120.499 -366.225)" fill="#fff"/></g><g transform="translate(14.859 1.531)"><path d="M316.653,32.382a.711.711,0,0,0-.972.26L313.395,36.6a.711.711,0,1,0,1.232.711l2.286-3.959A.711.711,0,0,0,316.653,32.382Z" transform="translate(-313.299 -32.286)" fill="#fff"/></g></svg>